<?xml version="1.0" encoding="utf-8"?>
<!-- Generator: Adobe Illustrator 25.2.1, SVG Export Plug-In . SVG Version: 6.00 Build 0)  -->
<svg version="1.1" id="Camada_1" xmlns="http://www.w3.org/2000/svg" xmlns:xlink="http://www.w3.org/1999/xlink" x="0px" y="0px"
	 viewBox="0 0 841.9 595.3" style="enable-background:new 0 0 841.9 595.3;" xml:space="preserve">
<style type="text/css">
	.st0{fill:#2A57A2;}
	.st1{fill:#0566AE;}
	.st2{fill:#3EB44D;}
	.st3{fill:#BB1C21;}
	.st4{fill:#247C42;}
	.st5{fill:#E84E3C;}
	.st6{fill:#D35C4D;}
	.st7{fill:#EAEAD5;}
</style>
<g>
	<path class="st0" d="M444.8,458.8c-53.6,3.6-107.2,1.1-160.8,1.9c-10.5,0.2-10.9-5.3-11-12.4c-0.3-41.6-0.3-83.2-0.7-124.8
		c-0.2-18.2,13.5-12.7,22.6-13.3c7.6-0.4,12.2-2.7,15.9,12.4c6.7,28.1,3.8,55.3,5.2,82.7c0.7,13.3,7.9,12.1,16.4,11.9
		c29.4-0.5,58.9-3.2,88.2,2.1C411.5,443,428.4,450.7,444.8,458.8z"/>
	<path class="st1" d="M444.8,458.8c-11.7-5.3-32,4.9-33-20.3c-0.4-9.6,5.2-13.2,8.8-19.2c25.5,3.5,50.5-6.5,76.1-2.8
		c9.6,1.4,10.2-5.6,10.2-13.3c-0.2-26.4,1.7-52.9-0.3-79.1c-1.6-21.7,13.5-13.6,22.3-14.4c9-0.9,22.1-5.8,21.8,12.9
		c-0.7,40.7-0.3,81.5,0.2,122.2c0.1,11.6-3.6,15.6-15.7,15.1C505.1,458.5,474.9,462.7,444.8,458.8z"/>
	<path class="st2" d="M408.5,316.6c15.9-19.9,31.8-39.8,47.7-59.7c6.9-10.8,11.7-23.7,25.5-28.3c9.5-10.7,20.4-20.6,28.2-32.4
		c15.3-23,24.2-2.7,35.3,4c13,7.9,16.9,15.1,4.5,29.1c-42.5,48-83.5,97.3-125.3,146c-2.3,2.7-5.9,4.5-8.9,6.7
		c-9.8-0.7-8.8-8.8-9-14.8C406.3,350.3,404.3,333.3,408.5,316.6z"/>
	<path class="st3" d="M411,216.3c-19.4,19-41.1,36.3-57.8,57.5c-23.5,29.8-53.6,28.4-85.6,25.6c0.3-8.3,7.3-11.7,12.1-15.7
		c14.9-12.4,24.1-26,19.5-46.6c-2.9-13.3,2.7-20.1,17.3-17.1c19.9,4,33.6-5.1,47.4-19.2c15.2-15.5,27.7-34.9,49.4-43.2
		C416.9,177.5,424.7,197.3,411,216.3z"/>
	<path class="st4" d="M408.5,316.6c5.9,15,4.4,30.6,4.5,46.1c0,6.5-3.4,13.5,2.8,19.2c-9.1,21.2-19,21.6-34.1,4
		c-15.7-18.3-34-34.5-51.9-50.7c-9.7-8.8-10.5-15.3,0.3-23.1c4.2-3.1,8.1-7,11.3-11.1c8.6-11,16.6-13.7,26.2-0.7
		c4.4,6,11.6,9.9,16,15.9C392.2,328.2,400,326.1,408.5,316.6z"/>
	<path class="st5" d="M411,216.3c3.8-19.4-4-39.3,2.4-58.6c20.5,19,40.9,37.9,61.4,56.9c1.9,17.6-7.9,27.3-22.6,33.8
		c-12.5,4.5-12.2-9.3-18.9-13.4C425.2,230,418.4,222.7,411,216.3z"/>
	<path class="st6" d="M554.6,298.9c-15.3,0.2-30.6,0.4-47.6,0.7c3.2-13.4,11.6-24.9,21.4-26.6c13.3-2.2,18,14.6,28.7,20.8
		C556.2,295.5,555.4,297.2,554.6,298.9z"/>
	<path class="st7" d="M452.3,248.4c6.9-11.7,20.4-19,22.6-33.8c2.3,4.7,4.6,9.3,6.9,14c-7.2,10.6-14.4,21.2-25.5,28.3
		C456.4,253.4,455.6,250.3,452.3,248.4z"/>
</g>
</svg>
